#!OML:ASF F:\VICON\USERDATA\INSTALL\SteveWalk\SteveWalk.ASF
:FULLY-SPECIFIED
:DEGREES
317
root -0.000383549 16.2317 24.5373 18.5592 -1.95404 3.33889
lowerback -14.8665 -0.831157 -5.27071
upperback -5.69107 -0.306338 -1.67206
thorax 2.31751 -0.116823 1.1714
lowerneck -5.74758 0.775272 -0.267036
upperneck 9.45465 0.948749 1.18875
head 4.1141 0.514811 0.49502
rclavicle -2.92897e-015 7.95139e-016
rhumerus -34.5562 0.297245 -89.2924
rradius 39.7435
rwrist -18.7824
rhand -17.5892 -33.9317
rfingers 7.12502
rthumb 8.66676 -63.7338
lclavicle -2.92897e-015 7.95139e-016
lhumerus -49.0114 30.317 57.0817
lradius 12.8505
lwrist -41.0042
lhand -13.3404 -15.6088
lfingers 7.12502
lthumb 12.7651 13.9809
rfemur -35.1652 -3.74307 16.2933
rtibia 75.4968
rfoot -2.63891 4.79727
rtoes -3.78509
lfemur -37.399 1.67457 -28.8253
ltibia 36.0615
lfoot -17.0134 -2.98898
ltoes -7.42611
318
root 0.0305175 16.2568 24.7524 18.2506 -0.589357 2.77421
lowerback -14.5643 -1.03239 -4.13607
upperback -5.68571 -0.752552 -1.45583
thorax 2.18385 -0.345266 0.689692
lowerneck -5.5795 0.727342 -0.397397
upperneck 9.83832 0.888845 1.2379
head 4.21799 0.482965 0.533053
rclavicle 2.37532e-015 2.38542e-015
rhumerus -35.5602 -0.578649 -88.9329
rradius 38.0074
rwrist -18.6112
rhand -17.7606 -33.2481
rfingers 7.12502
rthumb 8.50141 -63.057
lclavicle 2.37532e-015 2.38542e-015
lhumerus -46.3061 28.3858 60.5645
lradius 13.5789
lwrist -38.0385
lhand -14.011 -15.2309
lfingers 7.12502
lthumb 12.1185 14.3982
rfemur -35.7431 -4.7932 17.3068
rtibia 74.9712
rfoot -3.95399 4.6858
rtoes -3.00015
lfemur -36.0418 1.0911 -28.049
ltibia 35.8817
lfoot -18.6854 -2.27153
ltoes -14.4078
319
root 0.0160831 16.2714 24.9536 17.9675 -0.31158 2.35059
lowerback -14.3863 -1.08236 -4.01513
upperback -5.6492 -0.85177 -1.19205
thorax 2.13428 -0.392918 0.883542
lowerneck -5.32954 0.645468 -0.337212
upperneck 10.1237 0.783271 1.11466
head 4.27208 0.427019 0.475656
rclavicle -5.44522e-017 8.74653e-015
rhumerus -36.5017 -1.51897 -88.4738
rradius 36.3361
rwrist -17.8054
rhand -16.9766 -33.7959
rfingers 7.12502
rthumb 9.25795 -63.5726
lclavicle -5.44522e-017 8.74653e-015
lhumerus -43.7074 26.4691 63.6658
lradius 14.2618
lwrist -34.8524
lhand -14.7349 -15.3201
lfingers 7.12502
lthumb 11.4204 14.3489
rfemur -36.7985 -4.50788 18.118
rtibia 74.4024
rfoot -4.86541 4.20195
rtoes -5.5951
lfemur -34.993 1.25279 -27.47
ltibia 35.833
lfoot -19.2601 -2.16888
ltoes -15.815
320
root 0.0300971 16.2868 25.1504 17.8073 0.15897 2.32451
lowerback -14.2508 -1.18266 -3.79549
upperback -5.61706 -1.01999 -1.15767
thorax 2.10118 -0.478323 0.77072
lowerneck -5.05586 0.620644 -0.377043
upperneck 10.1995 0.749104 1.14916
head 4.24446 0.409752 0.491182
rclavicle -5.46968e-015 4.37326e-015
rhumerus -37.3626 -2.39444 -88.0725
rradius 34.5595
rwrist -17.2123
rhand -17.0192 -33.2173
rfingers 7.12502
rthumb 9.21686 -62.9959
lclavicle -5.46968e-015 4.37326e-015
lhumerus -41.196 24.1745 66.6829
lradius 15.1603
lwrist -31.1486
lhand -15.5742 -15.9416
lfingers 7.12502
lthumb 10.6109 13.7705
rfemur -37.7934 -4.84009 18.3577
rtibia 73.6605
rfoot -6.00565 3.95176
rtoes -6.91229
lfemur -34.0446 1.35598 -27.4872
ltibia 35.8551
lfoot -19.6744 -2.83995
ltoes -13.5872
321
root 0.0290254 16.2881 25.3459 17.6588 0.272816 2.45677
lowerback -14.1234 -1.2137 -4.03353
upperback -5.49956 -1.03336 -1.1149
thorax 2.16072 -0.484161 0.948018
lowerneck -5.19379 0.586823 -0.539674
upperneck 10.3633 0.708757 1.23387
head 4.33115 0.388097 0.548517
rclavicle 1.28663e-014 1.35174e-014
rhumerus -38.0275 -3.39112 -87.5082
rradius 32.8203
rwrist -16.4561
rhand -17.1809 -32.8219
rfingers 7.12502
rthumb 9.06077 -62.6073
lclavicle 1.28663e-014 1.35174e-014
lhumerus -38.7613 21.8564 69.5462
lradius 16.3285
lwrist -27.4638
lhand -16.5573 -16.6447
lfingers 7.12502
lthumb 9.66248 13.1137
rfemur -38.9456 -4.73243 18.4135
rtibia 72.8529
rfoot -6.93206 3.48475
rtoes -4.21843
lfemur -33.1523 1.78616 -27.7104
ltibia 35.9667
lfoot -20.0342 -3.38172
ltoes -10.7988
322
root 0.00781041 16.2761 25.544 17.4987 0.194787 2.11185
lowerback -14.0455 -1.16051 -4.14079
upperback -5.38429 -0.957498 -0.874216
thorax 2.24174 -0.445996 1.27202
lowerneck -5.35882 0.494111 -0.732909
upperneck 10.6174 0.587706 1.35492
head 4.45768 0.327271 0.62024
rclavicle 9.29862e-015 -1.19271e-015
rhumerus -38.7657 -4.65407 -86.7207
rradius 31.1038
rwrist -15.1353
rhand -17.0269 -32.8102
rfingers 7.12502
rthumb 9.2094 -62.5891
lclavicle 9.29862e-015 -1.19271e-015
lhumerus -36.6788 19.6715 71.9293
lradius 17.6564
lwrist -24.3584
lhand -17.3881 -17.05
lfingers 7.12502
lthumb 8.86087 12.744
rfemur -40.105 -4.08695 19.0685
rtibia 71.8502
rfoot -7.74142 2.65717
rtoes -3.98316
lfemur -32.3019 2.50964 -27.3672
ltibia 36.2013
lfoot -20.126 -3.8097
ltoes -7.94752
323
root 0.0327237 16.2694 25.7383 17.4864 1.102 1.89253
lowerback -13.9147 -1.32419 -3.47727
upperback -5.42466 -1.26923 -0.810798
thorax 2.13624 -0.604532 0.918279
lowerneck -5.23371 0.38119 -0.891552
upperneck 10.8068 0.428541 1.53433
head 4.50337 0.251055 0.701168
rclavicle 2.63234e-015 -3.18055e-015
rhumerus -39.6232 -6.09058 -85.822
rradius 29.2124
rwrist -13.5751
rhand -16.536 -33.1774
rfingers 7.12502
rthumb 9.68305 -62.9348
lclavicle 2.63234e-015 -3.18055e-015
lhumerus -34.9603 17.3776 73.871
lradius 19.105
lwrist -21.4234
lhand -17.5286 -16.4498
lfingers 7.12502
lthumb 8.72524 13.3498
rfemur -41.0036 -4.97343 19.6583
rtibia 70.6038
rfoot -8.95118 2.10393
rtoes -9.69865
lfemur -31.4773 2.766 -27.2016
ltibia 36.3841
lfoot -20.5874 -4.87916
ltoes -4.82562
324
root 0.0080473 16.2494 25.9342 17.3906 1.03667 1.78393
lowerback -13.7402 -1.31922 -3.8464
upperback -5.47077 -1.22925 -0.661501
thorax 2.00136 -0.576934 1.29158
lowerneck -5.12897 0.237496 -0.949802
upperneck 11.0349 0.231099 1.5903
head 4.56849 0.154011 0.72082
rclavicle -1.60506e-014 -1.8487e-014
rhumerus -40.5025 -7.7092 -84.7113
rradius 27.3107
rwrist -11.8325
rhand -16.1446 -33.538
rfingers 7.12502
rthumb 10.0606 -63.2775
lclavicle -1.60506e-014 -1.8487e-014
lhumerus -33.3535 14.9565 75.6463
lradius 20.6066
lwrist -18.1419
lhand -17.4406 -15.6107
lfingers 7.12502
lthumb 8.81018 14.1855
rfemur -42.0831 -4.39827 20.0512
rtibia 69.307
rfoot -9.73861 1.02152
rtoes -13.4514
lfemur -30.6902 3.59002 -27.0922
ltibia 36.4912
lfoot -21.2353 -5.54143
ltoes -2.91905
325
root 0.0140748 16.2436 26.1386 17.5148 1.25004 2.14449
lowerback -13.9312 -1.42837 -4.18718
upperback -5.53026 -1.31886 -0.712318
thorax 2.05015 -0.618084 1.41354
lowerneck -4.87553 0.160475 -0.964909
upperneck 11.1575 0.118416 1.6548
head 4.56371 0.100357 0.738756
rclavicle 4.33405e-015 6.16232e-015
rhumerus -41.4689 -9.62788 -83.2417
rradius 25.5978
rwrist -9.06823
rhand -15.2607 -34.0004
rfingers 7.12502
rthumb 10.9133 -63.6968
lclavicle 4.33405e-015 6.16232e-015
lhumerus -31.8955 12.4793 77.2219
lradius 22.1276
lwrist -14.6165
lhand -17.7996 -15.4642
lfingers 7.12502
lthumb 8.4637 14.3462
rfemur -43.3157 -4.50359 19.7911
rtibia 67.8079
rfoot -10.5823 0.845962
rtoes -10.1314
lfemur -29.9725 4.20173 -27.5692
ltibia 36.4846
lfoot -22.0194 -6.41908
ltoes -1.16119
